<svg width="20" height="20" viewBox="0 0 20 20" fill="none" xmlns="http://www.w3.org/2000/svg">
<path d="M9 5C6.79086 5 5 6.79086 5 9C5 11.2091 6.79086 13 9 13C9.92417 13 10.7751 12.6866 11.4524 12.1602L14.1455 14.8533C14.3408 15.0486 14.6574 15.0486 14.8526 14.8533C15.0479 14.6581 15.0479 14.3415 14.8526 14.1462L12.1596 11.4532C12.6863 10.7758 13 9.92454 13 9C13 6.79086 11.2091 5 9 5ZM6 9C6 7.34315 7.34315 6 9 6C10.6569 6 12 7.34315 12 9C12 10.6569 10.6569 12 9 12C7.34315 12 6 10.6569 6 9Z" fill="#616161"/>
</svg>
