<svg width="40" height="40" viewBox="0 0 40 40" fill="none" xmlns="http://www.w3.org/2000/svg">
<rect width="40" height="40" fill="white"/>
<mask id="path-1-inside-1_33757_145814" fill="white">
<path d="M0 8H40V32H0V8Z"/>
</mask>
<path d="M2 32V8H-2V32H2Z" fill="#0F6CBD" mask="url(#path-1-inside-1_33757_145814)"/>
<path d="M29 16.5V25.75C29 27.5449 27.5449 29 25.75 29H14.25C12.4551 29 11 27.5449 11 25.75V16.5H29ZM15.25 23C14.5596 23 14 23.5596 14 24.25C14 24.9404 14.5596 25.5 15.25 25.5C15.9404 25.5 16.5 24.9404 16.5 24.25C16.5 23.5596 15.9404 23 15.25 23ZM20 23C19.3096 23 18.75 23.5596 18.75 24.25C18.75 24.9404 19.3096 25.5 20 25.5C20.6904 25.5 21.25 24.9404 21.25 24.25C21.25 23.5596 20.6904 23 20 23ZM15.25 18.5C14.5596 18.5 14 19.0596 14 19.75C14 20.4404 14.5596 21 15.25 21C15.9404 21 16.5 20.4404 16.5 19.75C16.5 19.0596 15.9404 18.5 15.25 18.5ZM20 18.5C19.3096 18.5 18.75 19.0596 18.75 19.75C18.75 20.4404 19.3096 21 20 21C20.6904 21 21.25 20.4404 21.25 19.75C21.25 19.0596 20.6904 18.5 20 18.5ZM24.75 18.5C24.0596 18.5 23.5 19.0596 23.5 19.75C23.5 20.4404 24.0596 21 24.75 21C25.4404 21 26 20.4404 26 19.75C26 19.0596 25.4404 18.5 24.75 18.5ZM25.75 11C27.5449 11 29 12.4551 29 14.25V15H11V14.25C11 12.4551 12.4551 11 14.25 11H25.75Z" fill="#0F6CBD"/>
</svg>
