<svg width="24" height="24" viewBox="0 0 24 24" fill="none" xmlns="http://www.w3.org/2000/svg">
<path d="M10.5495 2.52994C11.3874 1.82335 12.6126 1.82335 13.4505 2.52994L20.2005 8.22205C20.7074 8.64956 21 9.27895 21 9.94211L21 19.252C21 20.2185 20.2165 21.002 19.25 21.002H15.75C14.7835 21.002 14 20.2185 14 19.252L14 14.2449C14 14.1068 13.8881 13.9949 13.75 13.9949H10.25C10.1119 13.9949 9.99999 14.1068 9.99999 14.2449L9.99999 19.252C9.99999 20.2185 9.2165 21.002 8.25 21.002H4.75C3.7835 21.002 3 20.2185 3 19.252V9.94211C3 9.27895 3.29255 8.64956 3.79952 8.22205L10.5495 2.52994ZM12.4835 3.67665C12.2042 3.44112 11.7958 3.44112 11.5165 3.67665L4.76651 9.36876C4.59752 9.51126 4.5 9.72106 4.5 9.94211L4.5 19.252C4.5 19.39 4.61193 19.502 4.75 19.502H8.25C8.38807 19.502 8.49999 19.39 8.49999 19.252L8.49999 14.2449C8.49999 13.2784 9.2835 12.4949 10.25 12.4949H13.75C14.7165 12.4949 15.5 13.2784 15.5 14.2449L15.5 19.252C15.5 19.39 15.6119 19.502 15.75 19.502H19.25C19.3881 19.502 19.5 19.39 19.5 19.252L19.5 9.94211C19.5 9.72106 19.4025 9.51126 19.2335 9.36876L12.4835 3.67665Z" fill="#616161"/>
</svg>
