<svg width="24" height="24" viewBox="0 0 24 24" fill="none" xmlns="http://www.w3.org/2000/svg">
<path d="M2.75086 18.0007H21.2509C21.6651 18.0007 22.0009 18.3365 22.0009 18.7507C22.0009 19.1304 21.7187 19.4442 21.3526 19.4938L21.2509 19.5007H2.75086C2.33665 19.5007 2.00086 19.1649 2.00086 18.7507C2.00086 18.371 2.28301 18.0572 2.64909 18.0075L2.75086 18.0007H21.2509H2.75086ZM2.75086 11.5037H21.2509C21.6651 11.5037 22.0009 11.8395 22.0009 12.2537C22.0009 12.6334 21.7187 12.9472 21.3526 12.9968L21.2509 13.0037H2.75086C2.33665 13.0037 2.00086 12.6679 2.00086 12.2537C2.00086 11.874 2.28301 11.5602 2.64909 11.5105L2.75086 11.5037H21.2509H2.75086ZM2.75 5.00391H21.25C21.6642 5.00391 22 5.33969 22 5.75391C22 6.1336 21.7178 6.4474 21.3518 6.49706L21.25 6.50391H2.75C2.33579 6.50391 2 6.16812 2 5.75391C2 5.37421 2.28215 5.06042 2.64823 5.01075L2.75 5.00391H21.25H2.75Z" fill="#616161"/>
</svg>
